<?xml version="1.0" encoding="UTF-8" standalone="no"?>
<svg
   id="Layer_1"
   data-name="Layer 1"
   viewBox="0 0 422.84 209.26"
   version="1.1"
   sodipodi:docname="byteswaplogo.svg"
   inkscape:version="1.2.2 (b0a8486541, 2022-12-01)"
   xmlns:inkscape="http://www.inkscape.org/namespaces/inkscape"
   xmlns:sodipodi="http://sodipodi.sourceforge.net/DTD/sodipodi-0.dtd"
   xmlns="http://www.w3.org/2000/svg"
   xmlns:svg="http://www.w3.org/2000/svg">
  <sodipodi:namedview
     id="namedview61"
     pagecolor="#ffffff"
     bordercolor="#000000"
     borderopacity="0.25"
     inkscape:showpageshadow="2"
     inkscape:pageopacity="0.0"
     inkscape:pagecheckerboard="0"
     inkscape:deskcolor="#d1d1d1"
     showgrid="false"
     inkscape:zoom="3.2092518"
     inkscape:cx="211.7316"
     inkscape:cy="104.6973"
     inkscape:window-width="3440"
     inkscape:window-height="1371"
     inkscape:window-x="0"
     inkscape:window-y="0"
     inkscape:window-maximized="1"
     inkscape:current-layer="Layer_1" />
  <defs
     id="defs4">
  </defs>
  <rect
     class="cls-1"
     x="27.08"
     y="31.75"
     width="16.76"
     height="16.76"
     rx="6.88"
     ry="6.88"
     id="rect6" />
  <rect
     class="cls-1"
     x="63.83"
     y="31.75"
     width="20.9"
     height="20.9"
     rx="9.11"
     ry="9.11"
     id="rect8" />
  <rect
     class="cls-1"
     x="90.22"
     y="16.21"
     width="14.67"
     height="14.67"
     rx="5.57"
     ry="5.57"
     transform="translate(-.73 43.84) rotate(-25.24)"
     id="rect10" />
  <rect
     class="cls-1"
     x="107.31"
     y="34.86"
     width="14.67"
     height="14.67"
     rx="4.36"
     ry="4.36"
     transform="translate(36.46 -51.67) rotate(30)"
     id="rect12" />
  <rect
     class="cls-1"
     x="147.03"
     y="29.58"
     width="14.67"
     height="14.67"
     rx="2.24"
     ry="2.24"
     transform="translate(160.63 195.51) rotate(-105.71)"
     id="rect14" />
  <rect
     class="cls-1"
     x="169.28"
     y="16.42"
     width="6.45"
     height="6.45"
     transform="translate(200.31 191.02) rotate(-105.71)"
     id="rect16" />
  <rect
     class="cls-1"
     x="121.63"
     y="4.16"
     width="14.47"
     height="14.47"
     rx="2.43"
     ry="2.43"
     transform="translate(22.96 -62.91) rotate(30)"
     id="rect18" />
  <rect
     class="cls-1"
     x="52.73"
     y="9.98"
     width="13.55"
     height="13.55"
     rx="5.57"
     ry="5.57"
     id="rect20" />
  <rect
     class="cls-1"
     x="48.79"
     y="48.71"
     width="7.88"
     height="7.88"
     rx="3.94"
     ry="3.94"
     id="rect22" />
  <path
     class="cls-1"
     d="m23.63,64.08l38.25,6.76-6.39,10.39c-1.52,2.47-2.54,5.16-3.04,8.01l-17.54,99.21c-1.17,6.62-6.89,11.62-13.29,11.62-.54,0-1.08-.04-1.62-.1-3.67-.47-6.89-2.37-9.07-5.33-2.18-2.97-3.03-6.6-2.39-10.22l17.65-99.81c.5-2.85.47-5.73-.11-8.57l-2.44-11.95m-6.33-9.53c-2.08,0-3.73,1.92-3.29,4.05l3.9,19.09c.37,1.8.39,3.65.07,5.45L.33,182.96c-2.14,12.13,6.24,23.67,18.6,25.27.9.12,1.8.17,2.69.17,10.48,0,19.63-7.9,21.5-18.5l17.54-99.21c.32-1.81.98-3.54,1.94-5.1l10.21-16.6c1.25-2.03.06-4.68-2.29-5.09l-52.61-9.3c-.2-.04-.4-.05-.6-.05h0Z"
     id="path42" />
  <circle
     class="cls-1"
     cx="33.57"
     cy="76.61"
     r="3.4"
     id="circle44" />
  <path
     class="cls-1"
     d="m36.93,103.63c-11.6,2.77-16.88-6.53-16.88-6.53l-15.62,83.26,4.75,17.49,17.4,5.26,12.46-10.92s17.21-85.2,16.81-86.78c-.4-1.58-7.32-4.55-18.92-1.78Zm-13.58,46.87c3.38,0,6.12,2.74,6.12,6.12s-2.74,6.12-6.12,6.12-6.12-2.74-6.12-6.12,2.74-6.12,6.12-6.12Zm.82,40.79c-3.83,0-6.94-3.11-6.94-6.94s3.11-6.94,6.94-6.94,6.94,3.11,6.94,6.94-3.11,6.94-6.94,6.94Zm10.07-46.56c-2.65.37-5.1-1.48-5.46-4.13s1.48-5.1,4.13-5.46c2.65-.37,5.1,1.48,5.46,4.13s-1.48,5.1-4.13,5.46Zm.58-17.51c-4.94.69-9.5-2.76-10.19-7.7-.69-4.94,2.76-9.5,7.7-10.19,4.94-.69,9.5,2.76,10.19,7.7.69,4.94-2.76,9.5-7.7,10.19Z"
     id="path46" />
  <circle
     class="cls-1"
     cx="40.66"
     cy="89.07"
     r="7.08"
     id="circle48" />
</svg>
