<?xml version="1.0" encoding="UTF-8" standalone="no"?>
<svg
   id="Layer_1"
   data-name="Layer 1"
   viewBox="0 0 422.84 209.26"
   version="1.1"
   sodipodi:docname="byteswaptext.svg"
   inkscape:version="1.2.2 (b0a8486541, 2022-12-01)"
   xmlns:inkscape="http://www.inkscape.org/namespaces/inkscape"
   xmlns:sodipodi="http://sodipodi.sourceforge.net/DTD/sodipodi-0.dtd"
   xmlns="http://www.w3.org/2000/svg"
   xmlns:svg="http://www.w3.org/2000/svg">
  <sodipodi:namedview
     id="namedview61"
     pagecolor="#ffffff"
     bordercolor="#000000"
     borderopacity="0.25"
     inkscape:showpageshadow="2"
     inkscape:pageopacity="0.0"
     inkscape:pagecheckerboard="0"
     inkscape:deskcolor="#d1d1d1"
     showgrid="false"
     inkscape:zoom="3.2092518"
     inkscape:cx="211.7316"
     inkscape:cy="104.6973"
     inkscape:window-width="3440"
     inkscape:window-height="1371"
     inkscape:window-x="0"
     inkscape:window-y="0"
     inkscape:window-maximized="1"
     inkscape:current-layer="Layer_1" />
  <defs
     id="defs4">
  </defs>
  <g
     id="g40">
    <path
       class="cls-1"
       d="m70.97,91.74h11.18c8.92,0,14.43,1.01,18.3,3.18,4.03,2.25,6.75,5.9,6.75,10.94s-3.03,8.69-8.53,10.78v.15c7.83,2.64,10.86,7.6,10.86,13.81,0,6.51-3.34,11.56-9.77,14.43-4.27,1.94-9.93,2.87-16.76,2.87h-21.72l9.69-56.16Zm14.43,12.72l-2.26,9.7h1.02c5.87,0,9.91.1,10.24-5,.11-1.78.29-2.76-1.35-3.73-.94-.56-3.6-1.31-7.65-.97Zm-2.33,30.72c4.58,0,6.9-.39,8.22-1.09,1.55-.85,2.25-2.25,2.25-4.27,0-3.8-2.64-5.43-7.76-5.43h-3.94l-2.24,10.78h3.47Z"
       id="path24" />
    <path
       class="cls-1"
       d="m115.04,164.97l10.24-21.25-15.2-33.97h15.82l3.65,9.93c1.09,2.95,2.17,5.97,3.1,8.69h.15c1.09-2.87,2.25-5.82,3.41-8.76l3.95-9.85h14.5l-24.28,55.23h-15.36Z"
       id="path26" />
    <path
       class="cls-1"
       d="m186.87,146.89c-2.17,1.01-5.9,1.86-9.54,1.86-4.73,0-8.77-1.47-11.25-3.96-2.17-2.17-3.72-5.43-3.72-12.02v-10.94h-5.66v-12.1h5.66v-9.54l15.36-2.64v12.18h9.15v12.1h-9.15v9.85c0,3.03.93,4.73,3.8,4.73,1.7,0,3.72-.62,5.35-1.24v11.71Z"
       id="path28" />
    <path
       class="cls-1"
       d="m259.55,124.17c-2.8-.78-4.98-1.08-6.49-1.4l-.32,1.99-5.63-4.56,6.78-2.56-.32,1.97c3.02.1,9.09,1.36,14.75,4.33v-11.94c-4.89-2.09-11.09-3.1-15.67-3.1-10.08,0-17.68,4.96-17.76,13.19,0,5.51,3.34,9.08,10.7,11.17,2.4.68,4.38.99,5.89,1.28l.29-1.78,5.63,4.56-6.78,2.57.3-1.86c-3.31-.23-9.35-1.52-14.64-4.38v11.94c4.96,2.25,11.4,3.18,15.9,3.18,10.32,0,18.15-4.89,18.23-13.42,0-5.82-3.49-9.07-10.86-11.17Z"
       id="path30" />
    <path
       class="cls-1"
       d="m228.29,145.81c-4.04,1.86-9.7,2.95-14.89,2.95-13.5,0-22.73-7.45-22.73-19.55s9.85-20.32,20.71-20.32c9.39,0,19.08,5.82,19.08,19.55,0,1.24-.08,2.79-.23,3.88h-23.97c1.47,4.03,5.12,5.43,9.23,5.43,3.57,0,8.22-1.09,12.8-3.57v11.64Zm-11.64-21.41c-.7-3.49-3.1-4.65-5.35-4.65-2.72,0-4.58,1.71-5.28,4.65h10.63Z"
       id="path32" />
    <path
       class="cls-1"
       d="m271.73,109.74h15.59l2.56,8.69c1.17,3.96,2.17,7.68,3.1,11.33h.16c.85-3.57,1.78-7.37,2.87-11.33l2.4-8.69h11.71l2.4,8.69c1.09,3.96,2.02,7.6,2.87,11.33h.15c.93-3.72,2.02-7.52,3.1-11.33l2.56-8.69h14.43l-12.95,38.16h-13.88l-1.71-6.13c-1.09-3.96-2.25-8.38-3.18-12.18h-.16c-.93,3.8-2.09,8.14-3.18,12.18l-1.71,6.13h-14.27l-12.88-38.16Z"
       id="path34" />
    <path
       class="cls-1"
       d="m359.7,146.04c-2.79,1.71-6.13,2.71-9.93,2.71-3.49,0-6.51-.78-9-2.4-3.03-2.02-4.89-5.04-4.89-9.15s1.94-7.29,4.5-9.15c2.95-2.17,6.98-2.87,10.7-2.87,2.09,0,3.95.23,5.82.62v-.54c0-1.16-.31-2.02-1.09-2.79-1.17-1.09-3.1-1.4-5.12-1.4-4.03,0-7.91,1.24-11.09,2.56v-11.94c3.26-1.47,8.38-2.79,14.12-2.79s10.55,1.24,13.81,3.72c3.41,2.56,4.73,6.13,4.73,10.94v11.01c0,1.55.54,2.48,1.94,2.48.54,0,1.16-.15,1.78-.46v10.55c-1.63.93-4.27,1.47-7.21,1.47-3.18,0-6.36-.62-8.92-2.56h-.16Zm-2.79-12.72c-.7-.15-1.71-.23-2.25-.23-2.02,0-3.88.78-3.88,2.79,0,1.86,1.63,2.71,3.41,2.71.93,0,1.94-.23,2.72-.54v-4.73Z"
       id="path36" />
    <path
       class="cls-1"
       d="m396.47,164.97h-15.36v-55.23h15.05v1.63l.16.08c2.48-1.63,5.43-2.56,8.53-2.56,9.54,0,17.99,7.6,17.99,19.55s-8.76,20.32-20.09,20.32c-2.64,0-4.65-.47-6.13-1.16l-.16.08v17.3Zm3.49-28.08c5.2,0,7.37-3.49,7.37-7.83s-2.33-7.91-6.83-7.91c-1.7,0-3.02.54-4.03,1.09v14.04c.93.39,2.17.62,3.49.62Z"
       id="path38" />
  </g>
  <g
     id="g58">
    <path
       class="cls-1"
       d="m60.03,152.26h9.79l-8.86,47.44h34.75v8.71h-46.39s10.71-56.16,10.71-56.16Z"
       id="path50" />
    <path
       class="cls-1"
       d="m124.62,205.64c-2.31,1.85-6.24,3.62-11.25,3.62-3.08,0-6.24-.69-8.79-2.54-2.62-1.93-4.24-4.93-4.24-8.71,0-4.16,2-7.25,4.86-9.17,2.85-1.93,6.71-2.62,10.64-2.62,2.62,0,5.01.31,7.32.85v-2.24c0-2.31-.62-4.01-1.85-5.17-1.39-1.23-3.55-1.85-6.4-1.85-4.55,0-8.48,1.54-11.41,3.39v-8.48c3.01-1.7,7.4-3.08,12.8-3.08,4.93,0,9.33,1.16,12.18,3.55,2.54,2.16,4.01,5.4,4.01,10.1v14.57c0,2.08.77,3.55,2.62,3.55.69,0,1.46-.23,2.08-.54v7.32c-1.16.54-2.78.92-4.63.92-3.08,0-6.01-1.08-7.79-3.47h-.15Zm-1.46-12.49c-1.7-.46-4.01-.77-5.86-.77-3.85,0-7.63,1.23-7.63,4.93,0,3.08,2.7,4.55,6.01,4.55,2.85,0,5.63-1,7.48-2.31v-6.4Z"
       id="path52" />
    <path
       class="cls-1"
       d="m144.58,149.52h9.33v22.89l.15.08c2.39-1.54,5.94-2.85,10.02-2.85,9.87,0,18.19,7.55,18.19,19.2s-8.56,20.43-20.27,20.43c-3.62,0-6.71-.85-9.48-2l-7.94,1.39v-59.13Zm17.11,51.96c7.02,0,11.18-5.47,11.18-12.18s-4.09-11.64-10.79-11.64c-3.24,0-6.01,1.16-8.17,2.7v19.12c2,1.16,5.09,2,7.79,2Z"
       id="path54" />
    <path
       class="cls-1"
       d="m190.3,197.39c4.78,2.93,10.56,4.24,14.72,4.24s6.94-1.23,6.94-4.09c0-3.78-4.86-3.62-10.64-4.86-7.25-1.54-12.18-4.09-12.18-10.95.08-7.94,6.94-12.1,16.03-12.1,4.55,0,10.02.93,14.03,3.01v8.48c-4.62-2.62-10.18-3.85-14.03-3.85s-6.63,1.16-6.63,3.78c0,3.55,4.78,3.47,10.41,4.62,7.25,1.54,12.41,3.85,12.41,11.1,0,8.56-7.55,12.49-16.5,12.49-4.7,0-10.33-1-14.57-3.16v-8.71Z"
       id="path56" />
  </g>
</svg>
