<?xml version="1.0" encoding="UTF-8" standalone="no"?>
<svg
   id="Layer_1"
   data-name="Layer 1"
   viewBox="0 0 73.318024 153.85001"
   version="1.1"
   sodipodi:docname="byteswaplogo_color_nobubbles.svg"
   inkscape:version="1.2.2 (b0a8486541, 2022-12-01)"
   width="73.318024"
   height="153.85001"
   xmlns:inkscape="http://www.inkscape.org/namespaces/inkscape"
   xmlns:sodipodi="http://sodipodi.sourceforge.net/DTD/sodipodi-0.dtd"
   xmlns="http://www.w3.org/2000/svg"
   xmlns:svg="http://www.w3.org/2000/svg">
  <defs
     id="defs17" />
  <sodipodi:namedview
     id="byteswaplogonamedview"
     pagecolor="#ffffff"
     bordercolor="#000000"
     borderopacity="0.25"
     inkscape:showpageshadow="2"
     inkscape:pageopacity="0.0"
     inkscape:pagecheckerboard="0"
     inkscape:deskcolor="#d1d1d1"
     showgrid="false"
     inkscape:zoom="3.2092518"
     inkscape:cx="212.51059"
     inkscape:cy="50.790655"
     inkscape:window-width="3440"
     inkscape:window-height="1371"
     inkscape:window-x="0"
     inkscape:window-y="0"
     inkscape:window-maximized="1"
     inkscape:current-layer="Layer_1" />
  <path
     class="cls-1"
     d="m 23.633723,9.53 38.25,6.76 -6.39,10.39 c -1.52,2.47 -2.54,5.16 -3.04,8.01 l -17.54,99.21 c -1.17,6.62 -6.89,11.62 -13.29,11.62 -0.54,0 -1.08,-0.04 -1.62,-0.1 -3.67,-0.47 -6.89,-2.37 -9.07,-5.33 -2.1800005,-2.97 -3.0300005,-6.6 -2.3900005,-10.22 L 26.193723,30.06 c 0.5,-2.85 0.47,-5.73 -0.11,-8.57 l -2.44,-11.95 m -6.33,-9.53 c -2.08,0 -3.73,1.92 -3.29,4.05 l 3.9,19.09 c 0.37,1.8 0.39,3.65 0.07,5.45 L 0.33372251,128.41 c -2.14000001,12.13 6.23999999,23.67 18.60000049,25.27 0.9,0.12 1.8,0.17 2.69,0.17 10.48,0 19.63,-7.9 21.5,-18.5 l 17.54,-99.21 c 0.32,-1.81 0.98,-3.54 1.94,-5.1 l 10.21,-16.6 c 1.25,-2.03 0.06,-4.68 -2.29,-5.09 l -52.61,-9.3 c -0.2,-0.04 -0.4,-0.05 -0.6,-0.05 v 0 z"
     id="path42"
     style="fill:#1ea699;fill-opacity:1" />
  <circle
     class="cls-1"
     cx="33.573723"
     cy="22.060001"
     r="3.4000001"
     id="circle44"
     style="fill:#1ea699;fill-opacity:1" />
  <path
     class="cls-1"
     d="m 36.933723,49.08 c -11.6,2.77 -16.88,-6.53 -16.88,-6.53 l -15.6200005,83.26 4.75,17.49 17.4000005,5.26 12.46,-10.92 c 0,0 17.21,-85.2 16.81,-86.78 -0.4,-1.58 -7.32,-4.55 -18.92,-1.78 z m -13.58,46.87 c 3.38,0 6.12,2.74 6.12,6.12 0,3.38 -2.74,6.12 -6.12,6.12 -3.38,0 -6.12,-2.74 -6.12,-6.12 0,-3.38 2.74,-6.12 6.12,-6.12 z m 0.82,40.79 c -3.83,0 -6.94,-3.11 -6.94,-6.94 0,-3.83 3.11,-6.94 6.94,-6.94 3.83,0 6.94,3.11 6.94,6.94 0,3.83 -3.11,6.94 -6.94,6.94 z m 10.07,-46.56 c -2.65,0.37 -5.1,-1.48 -5.46,-4.13 -0.36,-2.65 1.48,-5.1 4.13,-5.46 2.65,-0.37 5.1,1.48 5.46,4.13 0.36,2.65 -1.48,5.1 -4.13,5.46 z m 0.58,-17.51 c -4.94,0.69 -9.5,-2.76 -10.19,-7.7 -0.69,-4.94 2.76,-9.5 7.7,-10.19 4.94,-0.69 9.5,2.76 10.19,7.7 0.69,4.94 -2.76,9.5 -7.7,10.19 z"
     id="path46"
     style="fill:#1ea699;fill-opacity:1" />
  <circle
     class="cls-1"
     cx="40.663723"
     cy="34.52"
     r="7.0799999"
     id="circle48"
     style="fill:#1ea699;fill-opacity:1" />
</svg>
