<?xml version="1.0" encoding="UTF-8" standalone="no"?>
<svg
   id="Layer_1"
   data-name="Layer 1"
   viewBox="0 0 1500 1500"
   version="1.1"
   sodipodi:docname="favicon.svg"
   inkscape:version="1.2.2 (b0a8486541, 2022-12-01)"
   width="1500"
   height="1500"
   xmlns:inkscape="http://www.inkscape.org/namespaces/inkscape"
   xmlns:sodipodi="http://sodipodi.sourceforge.net/DTD/sodipodi-0.dtd"
   xmlns="http://www.w3.org/2000/svg"
   xmlns:svg="http://www.w3.org/2000/svg">
  <g
     id="g1583"
     transform="translate(395.90296,-0.51669875)">
    <path
       class="cls-1"
       d="m 228.28172,99.527519 369.4686,65.296931 -61.72299,100.36023 c -14.68215,23.85849 -24.53465,49.84204 -29.3643,77.37108 l -169.4243,958.30014 c -11.30139,63.9446 -66.55264,112.2411 -128.37222,112.2411 -5.21603,0 -10.43205,-0.3863 -15.64808,-0.9658 -35.44967,-4.54 -66.55265,-22.8926 -87.60994,-51.4842 -21.057295,-28.6881 -29.267708,-63.7514 -23.08575,-98.7181 L 253.00956,297.83315 c 4.82965,-27.52904 4.53987,-55.34784 -1.06253,-82.78029 L 228.37832,99.624109 M 167.23489,7.5708903 c -20.09137,0 -36.02923,18.5458747 -31.77913,39.1202047 l 37.67131,184.396225 c 3.57394,17.38676 3.76712,35.25648 0.67615,52.64323 L 3.2198066,1247.8263 C -17.451117,1364.9936 63.4939,1476.4621 182.88296,1491.917 c 8.69339,1.1591 17.38677,1.6421 25.98355,1.6421 101.22957,0 189.61226,-76.3086 207.67516,-178.6972 L 585.96596,356.56175 c 3.09098,-17.48335 9.46613,-34.19395 18.73906,-49.26248 l 98.62155,-160.34454 c 12.07414,-19.6084 0.57956,-45.20556 -22.11981,-49.165888 L 173.03047,7.9572627 c -1.93186,-0.3863724 -3.86372,-0.4829652 -5.79558,-0.4829652 v 0 z"
       id="path42"
       style="fill:#1ea699;fill-opacity:1;stroke-width:9.6593" />
    <circle
       class="cls-1"
       cx="324.29526"
       cy="220.55869"
       id="circle44"
       style="fill:#1ea699;fill-opacity:1;stroke-width:9.6593"
       r="32.841656" />
    <path
       class="cls-1"
       d="M 356.75054,481.55322 C 244.70255,508.30951 193.7014,418.47792 193.7014,418.47792 l -150.878423,804.23418 45.881721,168.9413 168.071982,50.8079 120.35501,-105.4796 c 0,0 166.23672,-822.9732 162.373,-838.2349 -3.86372,-15.26172 -70.70616,-43.94986 -182.75415,-17.19358 z M 225.57712,934.28507 c 32.64846,0 59.11497,26.46651 59.11497,59.11496 0,32.64857 -26.46651,59.11507 -59.11497,59.11507 -32.64847,0 -59.11498,-26.4665 -59.11498,-59.11507 0,-32.64845 26.46651,-59.11496 59.11498,-59.11496 z m 7.92063,394.00323 c -36.99516,0 -67.03561,-30.0404 -67.03561,-67.0356 0,-36.9951 30.04045,-67.0356 67.03561,-67.0356 36.99516,0 67.03561,30.0405 67.03561,67.0356 0,36.9952 -30.04045,67.0356 -67.03561,67.0356 z m 97.26926,-449.73745 c -25.59718,3.57395 -49.26248,-14.29577 -52.73984,-39.89294 -3.47735,-25.59718 14.29578,-49.26248 39.89295,-52.73984 25.59716,-3.57394 49.26248,14.29578 52.73983,39.89295 3.47736,25.59718 -14.29578,49.26248 -39.89294,52.73983 z m 5.60239,-169.13451 c -47.71699,6.66492 -91.76345,-26.6597 -98.42836,-74.37668 -6.66493,-47.717 26.65969,-91.76345 74.37668,-98.42838 47.71699,-6.66492 91.76344,26.6597 98.42837,74.37669 6.66492,47.71699 -26.6597,91.76345 -74.37669,98.42837 z"
       id="path46"
       style="fill:#1ea699;fill-opacity:1;stroke-width:9.6593" />
    <circle
       class="cls-1"
       cx="392.77979"
       cy="340.91367"
       id="circle48"
       style="fill:#1ea699;fill-opacity:1;stroke-width:9.6593"
       r="68.387909" />
  </g>
  <sodipodi:namedview
     id="namedview61"
     pagecolor="#ffffff"
     bordercolor="#000000"
     borderopacity="0.25"
     inkscape:showpageshadow="2"
     inkscape:pageopacity="0.0"
     inkscape:pagecheckerboard="0"
     inkscape:deskcolor="#d1d1d1"
     showgrid="false"
     inkscape:zoom="0.56732093"
     inkscape:cx="-705.0683"
     inkscape:cy="844.31928"
     inkscape:window-width="3440"
     inkscape:window-height="1371"
     inkscape:window-x="0"
     inkscape:window-y="0"
     inkscape:window-maximized="1"
     inkscape:current-layer="Layer_1" />
  <defs
     id="defs4" />
</svg>
