<?xml version="1.0" encoding="UTF-8" standalone="no"?>
<svg
   version="1.0"
   width="1786.000000pt"
   height="940.000000pt"
   viewBox="0 0 1786.000000 940.000000"
   preserveAspectRatio="xMidYMid meet"
   id="svg52"
   sodipodi:docname="justlogo.svg"
   inkscape:version="1.2.2 (b0a8486541, 2022-12-01)"
   xmlns:inkscape="http://www.inkscape.org/namespaces/inkscape"
   xmlns:sodipodi="http://sodipodi.sourceforge.net/DTD/sodipodi-0.dtd"
   xmlns="http://www.w3.org/2000/svg"
   xmlns:svg="http://www.w3.org/2000/svg">
  <defs
     id="defs56" />
  <sodipodi:namedview
     id="namedview54"
     pagecolor="#ffffff"
     bordercolor="#000000"
     borderopacity="0.25"
     inkscape:showpageshadow="2"
     inkscape:pageopacity="0.0"
     inkscape:pagecheckerboard="0"
     inkscape:deskcolor="#d1d1d1"
     inkscape:document-units="pt"
     showgrid="false"
     inkscape:zoom="0.56984882"
     inkscape:cx="1192.4215"
     inkscape:cy="626.48195"
     inkscape:window-width="3440"
     inkscape:window-height="1371"
     inkscape:window-x="0"
     inkscape:window-y="0"
     inkscape:window-maximized="1"
     inkscape:current-layer="g50" />
  <g
     transform="translate(0.000000,940.000000) scale(0.100000,-0.100000)"
     stroke="none"
     id="g50">
    <path
       d="M5813 8828 c-11 -13 -64 -98 -117 -190 -102 -177 -114 -215 -78 -256 25 -30 363 -222 390 -222 53 0 75 25 180 207 110 193 119 223 80 267 -13 13 -98 68 -190 120 -184 106 -225 117 -265 74z"
       id="path2" />
    <path
       d="M3145 8543 c-89 -47 -124 -112 -125 -232 0 -109 15 -156 66 -208 51 -50 92 -63 204 -63 103 0 151 19 203 80 44 52 50 78 45 208 -3 93 -5 104 -33 143 -16 23 -50 53 -74 66 -38 20 -58 23 -150 23 -77 -1 -114 -5 -136 -17z"
       id="path4" />
    <path
       d="M4720 8341 c-62 -22 -178 -81 -209 -107 -45 -37 -71 -97 -71 -163 0 -43 9 -72 45 -150 51 -107 72 -134 129 -163 67 -34 135 -27 246 25 144 67 184 117 184 227 0 59 -4 74 -54 170 -47 90 -62 109 -101 133 -49 30 -126 42 -169 28z"
       id="path6" />
    <path
       d="M7584 8313 l-121 -35 33 -115 c19 -64 36 -118 38 -121 6 -5 225 54 234 63 3 3 -10 59 -28 125 -18 66 -34 119 -34 119 -1 -1 -55 -17 -122 -36z"
       id="path8" />
    <path
       d="M6842 7801 c-111 -32 -211 -66 -221 -75 -34 -30 -32 -59 10 -207 86 -307 92 -319 151 -319 15 0 117 25 225 56 212 59 243 76 243 132 0 27 -90 360 -112 415 -11 27 -54 58 -80 56 -7 0 -104 -27 -216 -58z"
       id="path10" />
    <path
       d="M2216 7714 c-68 -21 -147 -101 -167 -169 -19 -68 -17 -248 3 -296 22 -50 83 -116 132 -142 57 -29 241 -37 314 -13 66 22 129 79 158 140 21 45 24 66 24 172 0 109 -2 125 -26 172 -32 65 -93 118 -158 137 -64 19 -216 18 -280 -1z"
       id="path12" />
    <path
       d="M3709 7717 c-107 -30 -202 -115 -239 -213 -29 -79 -29 -279 1 -358 28 -77 96 -148 177 -188 65 -32 69 -33 202 -33 133 0 137 1 202 33 74 36 132 95 170 170 21 43 23 60 23 197 0 137 -2 154 -23 197 -38 75 -96 134 -169 170 -61 30 -74 32 -182 35 -73 2 -133 -2 -162 -10z"
       id="path14" />
    <path
       d="M5278 7630 c-42 -23 -54 -39 -135 -180 -69 -119 -79 -152 -64 -208 17 -62 43 -86 178 -163 147 -84 193 -95 261 -60 47 24 46 22 137 181 65 112 66 117 63 175 -3 42 -10 70 -25 90 -12 17 -75 61 -149 104 -148 86 -199 97 -266 61z"
       id="path16" />
    <path
       d="M2976 7070 c-59 -18 -106 -83 -106 -147 0 -89 75 -157 163 -150 154 13 194 215 57 285 -47 23 -67 26 -114 12z"
       id="path18" />
    <path
       d="M1589 6827 c-21 -14 -39 -38 -48 -62 -13 -38 -9 -62 68 -440 59 -289 81 -421 81 -474 0 -53 -100 -638 -345 -2025 -382 -2160 -368 -2064 -325 -2246 56 -234 221 -440 435 -546 132 -65 225 -87 370 -87 148 -1 223 17 360 83 108 52 204 126 274 208 68 82 136 203 164 294 16 51 158 829 367 2013 187 1062 349 1959 361 1995 13 42 69 145 159 290 296 482 300 490 300 532 0 51 -23 94 -61 114 -33 16 -2028 374 -2090 374 -21 0 -50 -9 -70 -23z m1074 -478 c383 -68 697 -128 697 -133 0 -5 -56 -99 -124 -210 -138 -225 -166 -276 -195 -364 -16 -45 -121 -597 -121 -632 0 -3 -78 -5 -173 -6 -147 0 -191 -4 -300 -27 -138 -29 -225 -33 -309 -16 -58 12 -179 66 -217 97 l-25 20 60 328 c78 436 79 477 5 822 -28 133 -51 245 -51 249 0 3 12 3 28 0 15 -3 341 -61 725 -128z m-284 -1615 c156 -44 260 -192 249 -353 -6 -84 -34 -147 -94 -211 -70 -74 -138 -104 -244 -105 -72 0 -94 4 -141 26 -79 37 -133 90 -171 166 -28 57 -32 76 -32 147 0 67 4 91 25 136 47 101 126 169 228 196 63 17 115 17 180 -2z m-46 -985 c50 -14 113 -71 128 -116 27 -83 -17 -188 -94 -224 -80 -36 -158 -20 -214 44 -105 119 -31 290 132 306 6 0 27 -4 48 -10z m-350 -602 c104 -44 165 -163 137 -268 -43 -160 -221 -228 -357 -136 -146 100 -125 331 37 401 44 19 140 20 183 3z m47 -1038 c55 -25 105 -71 133 -124 16 -30 22 -58 22 -115 0 -64 -4 -82 -29 -128 -65 -116 -203 -166 -328 -119 -89 34 -168 150 -168 247 0 40 25 115 50 149 70 99 212 139 320 90z"
       id="path20" />
    <path
       d="M2231 6122 c-50 -25 -74 -63 -74 -116 0 -103 102 -166 192 -118 99 53 89 193 -16 238 -42 18 -61 18 -102 -4z"
       id="path22" />
    <path
       d="M2470 5785 c-107 -34 -184 -145 -182 -262 1 -110 53 -191 156 -246 56 -29 163 -30 227 -1 94 43 150 126 157 231 8 112 -42 205 -138 257 -63 35 -152 43 -220 21z"
       id="path24" />
  </g>
</svg>
