<?xml version="1.0" standalone="no"?>
<!DOCTYPE svg PUBLIC "-//W3C//DTD SVG 20010904//EN"
 "http://www.w3.org/TR/2001/REC-SVG-20010904/DTD/svg10.dtd">
<svg version="1.0" xmlns="http://www.w3.org/2000/svg"
 width="1786.000000pt" height="940.000000pt" viewBox="0 0 1786.000000 940.000000"
 preserveAspectRatio="xMidYMid meet">

<g transform="translate(0.000000,940.000000) scale(0.100000,-0.100000)" stroke="none">
<path d="M5813 8828 c-11 -13 -64 -98 -117 -190 -102 -177 -114 -215 -78 -256
25 -30 363 -222 390 -222 53 0 75 25 180 207 110 193 119 223 80 267 -13 13
-98 68 -190 120 -184 106 -225 117 -265 74z"/>
<path d="M3145 8543 c-89 -47 -124 -112 -125 -232 0 -109 15 -156 66 -208 51
-50 92 -63 204 -63 103 0 151 19 203 80 44 52 50 78 45 208 -3 93 -5 104 -33
143 -16 23 -50 53 -74 66 -38 20 -58 23 -150 23 -77 -1 -114 -5 -136 -17z"/>
<path d="M4720 8341 c-62 -22 -178 -81 -209 -107 -45 -37 -71 -97 -71 -163 0
-43 9 -72 45 -150 51 -107 72 -134 129 -163 67 -34 135 -27 246 25 144 67 184
117 184 227 0 59 -4 74 -54 170 -47 90 -62 109 -101 133 -49 30 -126 42 -169
28z"/>
<path d="M7584 8313 l-121 -35 33 -115 c19 -64 36 -118 38 -121 6 -5 225 54
234 63 3 3 -10 59 -28 125 -18 66 -34 119 -34 119 -1 -1 -55 -17 -122 -36z"/>
<path d="M6842 7801 c-111 -32 -211 -66 -221 -75 -34 -30 -32 -59 10 -207 86
-307 92 -319 151 -319 15 0 117 25 225 56 212 59 243 76 243 132 0 27 -90 360
-112 415 -11 27 -54 58 -80 56 -7 0 -104 -27 -216 -58z"/>
<path d="M2216 7714 c-68 -21 -147 -101 -167 -169 -19 -68 -17 -248 3 -296 22
-50 83 -116 132 -142 57 -29 241 -37 314 -13 66 22 129 79 158 140 21 45 24
66 24 172 0 109 -2 125 -26 172 -32 65 -93 118 -158 137 -64 19 -216 18 -280
-1z"/>
<path d="M3709 7717 c-107 -30 -202 -115 -239 -213 -29 -79 -29 -279 1 -358
28 -77 96 -148 177 -188 65 -32 69 -33 202 -33 133 0 137 1 202 33 74 36 132
95 170 170 21 43 23 60 23 197 0 137 -2 154 -23 197 -38 75 -96 134 -169 170
-61 30 -74 32 -182 35 -73 2 -133 -2 -162 -10z"/>
<path d="M5278 7630 c-42 -23 -54 -39 -135 -180 -69 -119 -79 -152 -64 -208
17 -62 43 -86 178 -163 147 -84 193 -95 261 -60 47 24 46 22 137 181 65 112
66 117 63 175 -3 42 -10 70 -25 90 -12 17 -75 61 -149 104 -148 86 -199 97
-266 61z"/>
<path d="M2976 7070 c-59 -18 -106 -83 -106 -147 0 -89 75 -157 163 -150 154
13 194 215 57 285 -47 23 -67 26 -114 12z"/>
<path d="M1589 6827 c-21 -14 -39 -38 -48 -62 -13 -38 -9 -62 68 -440 59 -289
81 -421 81 -474 0 -53 -100 -638 -345 -2025 -382 -2160 -368 -2064 -325 -2246
56 -234 221 -440 435 -546 132 -65 225 -87 370 -87 148 -1 223 17 360 83 108
52 204 126 274 208 68 82 136 203 164 294 16 51 158 829 367 2013 187 1062
349 1959 361 1995 13 42 69 145 159 290 296 482 300 490 300 532 0 51 -23 94
-61 114 -33 16 -2028 374 -2090 374 -21 0 -50 -9 -70 -23z m1074 -478 c383
-68 697 -128 697 -133 0 -5 -56 -99 -124 -210 -138 -225 -166 -276 -195 -364
-16 -45 -121 -597 -121 -632 0 -3 -78 -5 -173 -6 -147 0 -191 -4 -300 -27
-138 -29 -225 -33 -309 -16 -58 12 -179 66 -217 97 l-25 20 60 328 c78 436 79
477 5 822 -28 133 -51 245 -51 249 0 3 12 3 28 0 15 -3 341 -61 725 -128z
m-284 -1615 c156 -44 260 -192 249 -353 -6 -84 -34 -147 -94 -211 -70 -74
-138 -104 -244 -105 -72 0 -94 4 -141 26 -79 37 -133 90 -171 166 -28 57 -32
76 -32 147 0 67 4 91 25 136 47 101 126 169 228 196 63 17 115 17 180 -2z
m-46 -985 c50 -14 113 -71 128 -116 27 -83 -17 -188 -94 -224 -80 -36 -158
-20 -214 44 -105 119 -31 290 132 306 6 0 27 -4 48 -10z m-350 -602 c104 -44
165 -163 137 -268 -43 -160 -221 -228 -357 -136 -146 100 -125 331 37 401 44
19 140 20 183 3z m47 -1038 c55 -25 105 -71 133 -124 16 -30 22 -58 22 -115 0
-64 -4 -82 -29 -128 -65 -116 -203 -166 -328 -119 -89 34 -168 150 -168 247 0
40 25 115 50 149 70 99 212 139 320 90z"/>
<path d="M2231 6122 c-50 -25 -74 -63 -74 -116 0 -103 102 -166 192 -118 99
53 89 193 -16 238 -42 18 -61 18 -102 -4z"/>
<path d="M2470 5785 c-107 -34 -184 -145 -182 -262 1 -110 53 -191 156 -246
56 -29 163 -30 227 -1 94 43 150 126 157 231 8 112 -42 205 -138 257 -63 35
-152 43 -220 21z"/>
<path d="M3707 5344 c-32 -176 -357 -2065 -357 -2074 0 -13 738 -13 963 0 351
20 572 96 728 251 111 110 159 234 159 412 0 230 -95 380 -306 483 l-100 50
69 33 c182 90 270 249 246 441 -15 120 -54 197 -142 281 -101 97 -275 164
-488 189 -52 6 -243 13 -425 17 l-331 6 -16 -89z m809 -430 c28 -7 63 -25 79
-39 26 -25 27 -29 23 -104 -6 -96 -27 -136 -89 -171 -40 -22 -57 -25 -186 -28
-134 -4 -143 -3 -143 14 1 11 18 91 39 179 l38 160 34 6 c46 8 143 0 205 -17z
m-75 -763 c97 -29 143 -91 143 -190 -1 -116 -53 -169 -185 -191 -76 -12 -339
-14 -339 -2 0 5 18 94 40 198 22 104 40 193 40 198 0 12 254 0 301 -13z"/>
<path d="M7510 5150 c-151 -27 -276 -49 -277 -49 -2 -1 -4 -83 -5 -183 l-3
-183 -107 -3 -108 -3 0 -229 0 -229 108 -3 107 -3 6 -305 c7 -327 12 -368 66
-474 54 -107 175 -194 323 -233 129 -34 385 -17 512 34 l38 15 0 229 0 228
-57 -20 c-86 -30 -179 -35 -223 -12 -60 31 -70 79 -67 328 l2 210 173 3 172 2
0 230 0 230 -172 2 -173 3 -3 233 c-2 213 -4 232 -20 231 -9 0 -141 -23 -292
-49z"/>
<path d="M9025 4764 c-225 -33 -418 -133 -536 -278 -64 -77 -132 -219 -154
-316 -24 -107 -22 -283 4 -383 71 -272 279 -457 594 -529 72 -17 127 -21 252
-22 200 0 337 22 503 80 l72 26 0 225 c0 176 -3 224 -12 220 -7 -4 -52 -22
-100 -42 -329 -135 -615 -104 -709 78 l-19 37 459 0 459 0 7 76 c14 152 -15
314 -82 453 -63 132 -161 230 -294 295 -52 25 -123 52 -159 61 -67 15 -233 27
-285 19z m187 -445 c40 -20 82 -75 93 -121 l7 -28 -202 0 -201 0 7 23 c20 66
81 132 132 143 15 3 32 7 37 9 19 7 90 -8 127 -26z"/>
<path d="M10563 4760 c-308 -43 -506 -201 -545 -433 -31 -188 56 -344 242
-435 84 -42 278 -98 355 -104 37 -3 40 -1 43 25 2 15 6 27 8 27 7 0 205 -163
202 -166 -2 -1 -50 -20 -108 -42 -58 -22 -113 -43 -122 -47 -15 -6 -16 -2 -11
28 l5 34 -81 12 c-113 17 -270 62 -381 111 -51 22 -95 40 -97 40 -2 0 -3 -103
-3 -229 l0 -230 57 -21 c206 -77 482 -114 678 -90 278 33 471 156 546 348 19
46 23 77 23 162 1 95 -2 111 -27 166 -66 142 -225 235 -507 294 -126 26 -126
26 -137 -14 l-8 -33 -103 83 -104 84 29 11 c125 48 209 79 216 79 4 0 5 -15 2
-33 l-6 -33 84 -12 c146 -21 272 -60 475 -149 9 -4 12 45 12 225 l0 231 -57
21 c-196 73 -507 115 -680 90z"/>
<path d="M14411 4758 c-91 -10 -282 -56 -343 -82 l-38 -16 0 -230 c0 -127 1
-230 3 -230 2 0 37 11 78 26 138 47 228 64 342 64 114 0 162 -12 203 -51 21
-20 52 -105 42 -115 -3 -3 -36 0 -73 7 -86 15 -300 6 -378 -15 -225 -62 -357
-225 -357 -441 0 -167 90 -306 245 -380 99 -46 164 -60 290 -60 127 1 218 20
317 68 l66 32 60 -33 c33 -18 91 -39 128 -47 123 -26 300 -16 396 22 l38 15 0
202 0 202 -57 -1 c-84 0 -83 -3 -83 320 0 376 -17 443 -139 565 -151 150 -417
214 -740 178z m287 -1017 c2 -46 -1 -88 -7 -94 -5 -5 -38 -11 -73 -14 -98 -8
-148 25 -148 97 0 72 46 101 155 97 l70 -2 3 -84z"/>
<path d="M16415 4754 c-38 -8 -100 -30 -137 -49 l-68 -33 0 29 0 29 -295 0
-295 0 0 -1060 0 -1060 300 0 300 0 0 330 c0 182 3 330 6 330 3 0 31 -8 62
-17 78 -24 271 -23 367 1 39 10 111 37 160 61 155 75 253 173 330 330 67 135
80 194 80 370 0 175 -18 255 -88 389 -133 258 -448 411 -722 350z m74 -490
c99 -50 148 -154 139 -298 -8 -128 -61 -213 -157 -254 -40 -16 -156 -21 -213
-9 l-38 8 0 269 c0 267 0 269 22 281 71 38 174 39 247 3z"/>
<path d="M5224 4722 c12 -20 576 -1285 576 -1293 0 -7 -371 -786 -387 -811 -2
-5 130 -8 294 -8 l298 0 463 1053 c254 578 462 1055 462 1060 0 4 -125 7 -278
7 l-279 0 -121 -307 c-67 -170 -130 -330 -140 -356 l-18 -49 -130 356 -129
356 -308 0 c-170 0 -306 -4 -303 -8z"/>
<path d="M11432 4718 c3 -7 114 -338 248 -736 l243 -722 275 2 275 3 34 120
c18 66 58 217 89 335 30 118 58 222 61 230 3 8 14 -19 25 -60 19 -75 154 -580
164 -612 5 -17 27 -18 272 -18 l267 0 248 729 c136 401 247 731 247 735 0 3
-125 6 -278 6 l-278 0 -87 -302 c-47 -167 -94 -332 -103 -368 -9 -36 -20 -68
-23 -72 -4 -5 -17 34 -29 85 -12 50 -57 219 -99 375 l-76 282 -228 0 -227 0
-11 -32 c-28 -89 -149 -547 -186 -703 -6 -25 -16 3 -61 165 -29 107 -78 278
-107 380 l-54 185 -303 3 c-240 2 -301 0 -298 -10z"/>
<path d="M6550 2071 l0 -1138 130 23 c178 32 165 32 257 1 301 -98 618 -36
826 161 209 199 287 539 193 837 -83 261 -305 443 -579 474 -138 16 -322 -19
-424 -79 -19 -11 -36 -20 -39 -20 -2 0 -4 198 -4 440 l0 440 -180 0 -180 0 0
-1139z m842 16 c151 -68 238 -218 238 -407 0 -242 -139 -425 -348 -459 -103
-16 -246 5 -334 50 l-38 19 0 365 0 364 29 21 c79 55 174 80 296 76 83 -2 111
-7 157 -29z"/>
<path d="M3297 3078 c-7 -28 -407 -2124 -407 -2132 0 -3 400 -6 890 -6 l890 0
0 170 0 170 -665 0 -665 0 5 23 c3 12 77 409 165 882 88 473 163 872 166 888
l6 27 -190 0 c-189 0 -190 0 -195 -22z"/>
<path d="M5350 2429 c-102 -9 -232 -43 -323 -83 l-57 -25 0 -166 c0 -92 3
-165 8 -163 4 2 35 18 69 35 132 69 318 104 447 83 83 -13 133 -37 174 -84 39
-44 52 -91 52 -185 0 -71 -1 -73 -22 -68 -73 18 -215 29 -308 24 -288 -17
-468 -130 -525 -331 -25 -86 -17 -221 18 -299 54 -121 175 -211 327 -243 176
-37 427 12 549 107 24 19 24 19 68 -22 68 -62 121 -82 234 -87 70 -3 112 0
153 12 l56 17 0 139 0 139 -62 -5 c-59 -6 -65 -4 -88 21 l-25 27 -6 376 c-7
399 -10 425 -59 522 -67 132 -183 209 -367 244 -108 21 -202 25 -313 15z m257
-880 c124 -16 113 -2 113 -144 l0 -125 -39 -20 c-105 -53 -235 -73 -330 -50
-128 31 -183 167 -104 260 63 75 188 103 360 79z"/>
<path d="M8770 2430 c-106 -11 -163 -27 -257 -71 -101 -48 -169 -113 -215
-206 -32 -65 -33 -72 -33 -183 0 -96 3 -123 21 -161 67 -144 212 -221 528
-279 190 -35 220 -43 264 -70 85 -52 65 -177 -36 -223 -42 -20 -63 -22 -192
-21 -125 1 -159 4 -245 28 -55 15 -146 49 -202 76 l-103 49 0 -169 0 -169 48
-21 c210 -94 547 -125 755 -71 166 43 294 136 350 251 38 79 54 192 38 276
-38 208 -181 302 -561 369 -173 31 -231 48 -270 82 -52 43 -49 121 7 169 41
35 107 49 223 48 152 -2 322 -45 460 -114 l60 -30 0 165 0 165 -37 19 c-130
66 -420 110 -603 91z"/>
</g>
</svg>
